<svg width="21" height="22" viewBox="0 0 21 22" fill="none" xmlns="http://www.w3.org/2000/svg">
<path fill-rule="evenodd" clip-rule="evenodd" d="M16.3687 5.13128C16.7104 5.47299 16.7104 6.02701 16.3687 6.36872L5.86872 16.8687C5.52701 17.2104 4.97299 17.2104 4.63128 16.8687C4.28957 16.527 4.28957 15.973 4.63128 15.6313L15.1313 5.13128C15.473 4.78957 16.027 4.78957 16.3687 5.13128Z" fill="white"/>
<path fill-rule="evenodd" clip-rule="evenodd" d="M4.63128 5.13128C4.97299 4.78957 5.52701 4.78957 5.86872 5.13128L16.3687 15.6313C16.7104 15.973 16.7104 16.527 16.3687 16.8687C16.027 17.2104 15.473 17.2104 15.1313 16.8687L4.63128 6.36872C4.28957 6.02701 4.28957 5.47299 4.63128 5.13128Z" fill="white"/>
</svg>
