<svg width="19" height="19" viewBox="0 0 19 19" fill="none" xmlns="http://www.w3.org/2000/svg">
<path fill-rule="evenodd" clip-rule="evenodd" d="M14.8098 4.19019C15.1189 4.49935 15.1189 5.00061 14.8098 5.30977L5.30977 14.8098C5.00061 15.1189 4.49935 15.1189 4.19019 14.8098C3.88102 14.5006 3.88102 13.9994 4.19019 13.6902L13.6902 4.19019C13.9994 3.88102 14.5006 3.88102 14.8098 4.19019Z" fill="#0A4987"/>
<path fill-rule="evenodd" clip-rule="evenodd" d="M4.19019 4.19019C4.49935 3.88102 5.00061 3.88102 5.30977 4.19019L14.8098 13.6902C15.1189 13.9994 15.1189 14.5006 14.8098 14.8098C14.5006 15.1189 13.9994 15.1189 13.6902 14.8098L4.19019 5.30977C3.88102 5.00061 3.88102 4.49935 4.19019 4.19019Z" fill="#0A4987"/>
</svg>
