<svg width="30" height="31" viewBox="0 0 30 31" fill="none" xmlns="http://www.w3.org/2000/svg">
<path fill-rule="evenodd" clip-rule="evenodd" d="M15 4.25C8.7868 4.25 3.75 9.2868 3.75 15.5C3.75 21.7132 8.7868 26.75 15 26.75C21.2132 26.75 26.25 21.7132 26.25 15.5C26.25 9.2868 21.2132 4.25 15 4.25ZM1.25 15.5C1.25 7.90608 7.40608 1.75 15 1.75C22.5939 1.75 28.75 7.90608 28.75 15.5C28.75 23.0939 22.5939 29.25 15 29.25C7.40608 29.25 1.25 23.0939 1.25 15.5Z" fill="#3271AF"/>
<path fill-rule="evenodd" clip-rule="evenodd" d="M15 6.75C15.6904 6.75 16.25 7.30964 16.25 8V14.7275L20.559 16.882C21.1765 17.1907 21.4268 17.9415 21.118 18.559C20.8093 19.1765 20.0585 19.4268 19.441 19.118L14.441 16.618C14.0175 16.4063 13.75 15.9735 13.75 15.5V8C13.75 7.30964 14.3096 6.75 15 6.75Z" fill="#3271AF"/>
</svg>
