<svg width="20" height="20" viewBox="0 0 20 20" fill="none" xmlns="http://www.w3.org/2000/svg">
<path fill-rule="evenodd" clip-rule="evenodd" d="M4.16663 3.33329C3.94561 3.33329 3.73365 3.42109 3.57737 3.57737C3.42109 3.73365 3.33329 3.94561 3.33329 4.16663V15.8333C3.33329 16.0543 3.42109 16.2663 3.57737 16.4225C3.73365 16.5788 3.94561 16.6666 4.16663 16.6666H15.8333C16.0543 16.6666 16.2663 16.5788 16.4225 16.4225C16.5788 16.2663 16.6666 16.0543 16.6666 15.8333V7.0118L12.9881 3.33329H4.16663ZM2.39886 2.39886C2.8677 1.93002 3.50358 1.66663 4.16663 1.66663H13.3333C13.5543 1.66663 13.7663 1.75442 13.9225 1.9107L18.0892 6.07737C18.2455 6.23365 18.3333 6.44561 18.3333 6.66663V15.8333C18.3333 16.4963 18.0699 17.1322 17.6011 17.6011C17.1322 18.0699 16.4963 18.3333 15.8333 18.3333H4.16663C3.50358 18.3333 2.8677 18.0699 2.39886 17.6011C1.93002 17.1322 1.66663 16.4963 1.66663 15.8333V4.16663C1.66663 3.50358 1.93002 2.8677 2.39886 2.39886Z" fill="white"/>
<path fill-rule="evenodd" clip-rule="evenodd" d="M5 10.8333C5 10.3731 5.3731 10 5.83333 10H14.1667C14.6269 10 15 10.3731 15 10.8333V17.5C15 17.9602 14.6269 18.3333 14.1667 18.3333C13.7064 18.3333 13.3333 17.9602 13.3333 17.5V11.6667H6.66667V17.5C6.66667 17.9602 6.29357 18.3333 5.83333 18.3333C5.3731 18.3333 5 17.9602 5 17.5V10.8333Z" fill="white"/>
<path fill-rule="evenodd" clip-rule="evenodd" d="M5.83333 1.66663C6.29357 1.66663 6.66667 2.03972 6.66667 2.49996V5.83329H12.5C12.9602 5.83329 13.3333 6.20639 13.3333 6.66663C13.3333 7.12686 12.9602 7.49996 12.5 7.49996H5.83333C5.3731 7.49996 5 7.12686 5 6.66663V2.49996C5 2.03972 5.3731 1.66663 5.83333 1.66663Z" fill="white"/>
</svg>
