<svg width="21" height="22" viewBox="0 0 21 22" fill="none" xmlns="http://www.w3.org/2000/svg">
<path fill-rule="evenodd" clip-rule="evenodd" d="M2.44196 4.69196C2.88502 4.24891 3.48593 4 4.1125 4H9.625C10.0599 4 10.4125 4.35258 10.4125 4.7875C10.4125 5.22242 10.0599 5.575 9.625 5.575H4.1125C3.90364 5.575 3.70334 5.65797 3.55565 5.80565C3.40797 5.95334 3.325 6.15364 3.325 6.3625V17.3875C3.325 17.5964 3.40797 17.7967 3.55565 17.9443C3.70334 18.092 3.90364 18.175 4.1125 18.175H15.1375C15.3464 18.175 15.5467 18.092 15.6943 17.9443C15.842 17.7967 15.925 17.5964 15.925 17.3875V11.875C15.925 11.4401 16.2776 11.0875 16.7125 11.0875C17.1474 11.0875 17.5 11.4401 17.5 11.875V17.3875C17.5 18.0141 17.2511 18.615 16.808 19.058C16.365 19.5011 15.7641 19.75 15.1375 19.75H4.1125C3.48593 19.75 2.88501 19.5011 2.44196 19.058C1.99891 18.615 1.75 18.0141 1.75 17.3875V6.3625C1.75 5.73593 1.99891 5.13502 2.44196 4.69196Z" fill="white"/>
<path fill-rule="evenodd" clip-rule="evenodd" d="M16.7088 3.87828C16.4667 3.87828 16.2345 3.97446 16.0633 4.14566L8.48843 11.7205L8.05808 13.4419L9.77948 13.0116L17.3543 5.43671C17.5255 5.26551 17.6217 5.0333 17.6217 4.79119C17.6217 4.54907 17.5255 4.31687 17.3543 4.14566C17.1831 3.97446 16.9509 3.87828 16.7088 3.87828ZM14.9119 2.9943C15.3885 2.51773 16.0348 2.25 16.7088 2.25C17.3828 2.25 18.0291 2.51773 18.5057 2.9943C18.9823 3.47086 19.25 4.11722 19.25 4.79119C19.25 5.46515 18.9823 6.11151 18.5057 6.58808L10.7714 14.3224C10.6671 14.4267 10.5363 14.5007 10.3932 14.5365L7.13661 15.3507C6.85917 15.42 6.56569 15.3387 6.36347 15.1365C6.16126 14.9343 6.07997 14.6408 6.14933 14.3634L6.96346 11.1068C6.99925 10.9637 7.07327 10.8329 7.17761 10.7286L14.9119 2.9943Z" fill="white"/>
</svg>
