<svg width="19" height="19" viewBox="0 0 19 19" fill="none" xmlns="http://www.w3.org/2000/svg">
<path fill-rule="evenodd" clip-rule="evenodd" d="M2.20937 3.79269C2.61023 3.39183 3.15391 3.16663 3.72081 3.16663H8.70831C9.10182 3.16663 9.42081 3.48562 9.42081 3.87913C9.42081 4.27263 9.10182 4.59163 8.70831 4.59163H3.72081C3.53185 4.59163 3.35062 4.66669 3.217 4.80031C3.08338 4.93393 3.00831 5.11516 3.00831 5.30413V15.2791C3.00831 15.4681 3.08338 15.6493 3.217 15.7829C3.35062 15.9166 3.53185 15.9916 3.72081 15.9916H13.6958C13.8848 15.9916 14.066 15.9166 14.1996 15.7829C14.3332 15.6493 14.4083 15.4681 14.4083 15.2791V10.2916C14.4083 9.89812 14.7273 9.57913 15.1208 9.57913C15.5143 9.57913 15.8333 9.89812 15.8333 10.2916V15.2791C15.8333 15.846 15.6081 16.3897 15.2073 16.7906C14.8064 17.1914 14.2627 17.4166 13.6958 17.4166H3.72081C3.15391 17.4166 2.61023 17.1914 2.20937 16.7906C1.80851 16.3897 1.58331 15.846 1.58331 15.2791V5.30413C1.58331 4.73723 1.80851 4.19354 2.20937 3.79269Z" fill="#0A4987"/>
<path fill-rule="evenodd" clip-rule="evenodd" d="M15.1175 3.05652C14.8984 3.05652 14.6883 3.14354 14.5334 3.29844L7.67997 10.1519L7.2906 11.7093L8.84806 11.32L15.7015 4.46653C15.8564 4.31163 15.9434 4.10154 15.9434 3.88248C15.9434 3.66342 15.8564 3.45333 15.7015 3.29844C15.5466 3.14354 15.3365 3.05652 15.1175 3.05652ZM13.4917 2.25672C13.9229 1.82555 14.5077 1.58331 15.1175 1.58331C15.7272 1.58331 16.312 1.82555 16.7432 2.25672C17.1744 2.6879 17.4166 3.2727 17.4166 3.88248C17.4166 4.49226 17.1744 5.07706 16.7432 5.50824L9.7455 12.506C9.6511 12.6004 9.53282 12.6673 9.4033 12.6997L6.45689 13.4363C6.20588 13.4991 5.94034 13.4255 5.75739 13.2426C5.57443 13.0596 5.50088 12.7941 5.56363 12.543L6.30024 9.59664C6.33262 9.46712 6.39959 9.34884 6.49399 9.25444L13.4917 2.25672Z" fill="#0A4987"/>
</svg>
