<svg width="25" height="25" viewBox="0 0 25 25" fill="none" xmlns="http://www.w3.org/2000/svg">
<g opacity="0.7">
<path d="M22.2611 19.6779C19.539 24.1859 13.5893 24.1781 12.3244 24.1746C10.5719 24.1696 6.3421 24.1583 3.58236 20.7926C1.14465 17.8207 1.4725 14.2066 1.57104 13.3621C8.85197 13.4533 16.1333 13.5446 23.4142 13.6358C23.5566 14.7746 23.7005 17.2942 22.2611 19.6779Z" fill="#E62823"/>
<path d="M22.2611 19.678C23.7005 17.2943 23.5566 14.7747 23.4142 13.6359C22.4733 13.6242 21.5325 13.6122 20.592 13.6006C20.5183 14.3375 20.5753 15.0842 20.5392 15.8254C20.4205 18.2856 19.2162 20.6739 17.3096 22.2317C15.9583 23.3356 14.269 24.0093 12.5339 24.1747C14.1437 24.1689 19.6674 23.9736 22.2611 19.678" fill="#D02025"/>
<path d="M16.9896 10.0092C15.3558 9.94827 13.7871 10.1917 12.4742 10.6507C11.1609 10.1917 9.59225 9.94827 7.95844 10.0092C3.97965 10.1579 1.12215 12.0532 1.57609 14.2427C1.88066 15.71 3.59555 16.9374 5.89203 17.5419C6.40301 17.6767 6.94308 17.7803 7.50256 17.8491C8.77476 18.0521 10.5188 18.2424 12.6069 18.2346C14.6011 18.2269 16.266 18.0405 17.4881 17.844C18.0119 17.7776 18.5186 17.6809 18.9997 17.5567H19.0001C21.3245 16.9572 23.065 15.7221 23.3719 14.2427C23.8259 12.0532 20.9687 10.1579 16.9896 10.0092" fill="#F0433A"/>
<path d="M16.5109 10.427C16.3731 10.4216 15.4823 10.4297 14.3521 10.5408C13.5521 10.6196 12.9104 10.7252 12.4673 10.8087C11.9811 10.7225 11.3033 10.6188 10.4711 10.5408C9.39753 10.4406 8.52379 10.4188 8.31234 10.427C4.7002 10.5617 2.10613 12.2822 2.51856 14.2698C2.79481 15.602 4.35179 16.716 6.43643 17.2651C6.90046 17.3874 7.39049 17.4813 7.89836 17.5438C9.05339 17.7283 10.6364 17.9011 12.5321 17.8937C14.3428 17.8867 15.8536 17.7174 16.9632 17.5392C17.4389 17.479 17.8987 17.3909 18.3355 17.2783C20.4458 16.7339 22.0261 15.6129 22.3046 14.2698C22.7167 12.2822 20.123 10.5617 16.5109 10.427" fill="#F36049"/>
<path d="M13.8306 11.7903C13.2948 12.2369 13.4031 12.9218 14.1748 13.2231C14.7509 13.4475 15.182 13.3369 15.994 13.5069C17.0753 13.7337 17.5289 14.3794 17.1289 14.8861C16.7289 15.3932 15.6413 15.7473 14.4801 15.8693C14.1592 15.903 13.8186 15.9236 13.5486 16.009C12.9576 16.195 13.0166 16.5942 13.0205 16.6575C13.024 16.7107 13.0496 17.1207 13.632 17.3102C14.3719 17.5513 15.5672 17.2927 16.1783 17.1603C19.7842 16.3795 20.7581 14.772 20.7581 14.772C21.4778 13.5838 21.1286 11.7344 18.6544 11.225C17.1025 10.9054 14.657 11.1015 13.8306 11.7903" fill="#DF3422"/>
<path d="M16.6738 11.6545C16.4235 11.5671 16.0759 11.625 15.982 11.7578C15.8644 11.9243 15.4532 12.0734 15.5703 12.2629C15.5874 12.2905 15.6503 12.3149 15.7162 12.313C15.9323 12.308 16.0611 12.254 16.2097 12.188C16.2792 12.1569 16.3479 12.1258 16.4138 12.0936C16.4806 12.061 16.5512 12.0086 16.6292 11.9826C16.874 11.901 16.9357 11.7457 16.6738 11.6545Z" fill="#FCCC5A"/>
<path d="M18.6886 12.1779C18.4822 12.0571 18.0612 12.0664 17.8878 12.2C17.8253 12.2478 17.6845 12.2878 17.5964 12.3274C17.4808 12.3794 17.3718 12.4303 17.2713 12.4889C17.1991 12.5308 17.0187 12.636 17.1266 12.6931C17.2534 12.7599 17.5297 12.7184 17.6794 12.6951C17.8063 12.6757 17.9243 12.6485 18.0434 12.6213C18.1621 12.5941 18.3107 12.5378 18.4364 12.5219C18.7662 12.48 18.8962 12.299 18.6886 12.1779Z" fill="#FCCC5A"/>
<path d="M19.8677 13.2521C19.825 13.1096 19.4661 13.025 19.1848 13.1007C19.0851 13.1275 18.9326 13.1283 18.8209 13.1411C18.6909 13.1562 18.5613 13.1745 18.4375 13.1982C18.3242 13.2195 18.1124 13.2576 18.1485 13.3302C18.1854 13.4051 18.4267 13.4226 18.5636 13.4346C18.7929 13.4552 19.0812 13.4405 19.2946 13.4797C19.6073 13.5368 19.9068 13.3834 19.8677 13.2521" fill="#FCCC5A"/>
<path d="M19.6884 14.2633C19.4929 14.2508 19.3 14.231 19.1057 14.2159C18.9249 14.2015 18.7188 14.1751 18.5411 14.2042C18.4189 14.224 18.3382 14.2769 18.3739 14.337C18.4888 14.5296 19.0758 14.6104 19.4583 14.6399C19.6884 14.6574 19.9243 14.6123 19.9907 14.5036C20.0461 14.412 19.9216 14.2776 19.6884 14.2633Z" fill="#FCCC5A"/>
<path d="M18.8379 15.4958C18.6098 15.4002 18.2928 15.3207 18.0189 15.2737C17.8909 15.2519 17.7423 15.3082 17.7481 15.3669C17.7566 15.4507 17.8005 15.5191 17.9083 15.5932C18.0143 15.6658 18.1679 15.7458 18.3429 15.7854C18.5241 15.8266 18.7437 15.8142 18.8701 15.7381C18.9873 15.6674 18.99 15.5594 18.8379 15.4958" fill="#FCCC5A"/>
<path d="M17.2095 16.3985C17.0664 16.2715 16.7932 16.0793 16.4665 16.0428C16.3466 16.0296 16.2105 16.0599 16.1794 16.1166C16.0972 16.2661 16.3358 16.4614 16.522 16.5798C16.8161 16.7674 17.4443 16.6074 17.2095 16.3985" fill="#FCCC5A"/>
<path d="M14.8859 16.8244C14.8816 16.8213 14.8762 16.8174 14.8747 16.8143C14.8622 16.7918 14.8304 16.7673 14.8095 16.746C14.7715 16.706 14.7362 16.6613 14.6857 16.6245C14.6287 16.5829 14.5045 16.5212 14.3835 16.548C14.2132 16.5856 14.2217 16.7009 14.2128 16.7732C14.2 16.8733 14.1883 16.9615 14.2826 17.0547C14.4044 17.175 14.7936 17.1661 14.9526 17.0729C15.1012 16.9863 15.045 16.8858 14.8859 16.8244" fill="#FCCC5A"/>
<path d="M10.6422 11.7903C11.178 12.2369 11.0697 12.9218 10.298 13.2231C9.72186 13.4475 9.29081 13.3369 8.47875 13.5069C7.39744 13.7337 6.94389 14.3794 7.3439 14.8861C7.74391 15.3932 8.83144 15.7473 9.99268 15.8693C10.3135 15.903 10.6542 15.9236 10.9242 16.009C11.5151 16.195 11.4562 16.5942 11.4523 16.6575C11.4488 16.7107 11.4232 17.1207 10.8408 17.3102C10.1009 17.5513 8.90554 17.2927 8.29446 17.1603C4.68853 16.3795 3.71468 14.772 3.71468 14.772C2.99497 13.5838 3.34416 11.7344 5.81834 11.225C7.37028 10.9054 9.81575 11.1015 10.6422 11.7903" fill="#DF3422"/>
<path d="M7.79903 11.6545C8.04928 11.5671 8.39691 11.625 8.4908 11.7578C8.60836 11.9243 9.01963 12.0734 8.90246 12.2629C8.88539 12.2905 8.82253 12.3149 8.75657 12.313C8.54046 12.308 8.41165 12.254 8.26305 12.188C8.19361 12.1569 8.12493 12.1258 8.05898 12.0936C7.99224 12.061 7.92163 12.0086 7.84364 11.9826C7.59883 11.901 7.53675 11.7457 7.79903 11.6545Z" fill="#FCCC5A"/>
<path d="M5.78419 12.1779C5.9906 12.0571 6.41156 12.0664 6.58499 12.2C6.64707 12.2478 6.7883 12.2878 6.87637 12.3274C6.99199 12.3794 7.10102 12.4303 7.2015 12.4889C7.27367 12.5308 7.45408 12.636 7.34622 12.6931C7.21935 12.7599 6.9431 12.7184 6.79334 12.6951C6.66647 12.6757 6.54852 12.6485 6.42941 12.6213C6.31069 12.5941 6.16209 12.5378 6.03638 12.5219C5.70659 12.48 5.57662 12.299 5.78419 12.1779Z" fill="#FCCC5A"/>
<path d="M4.60509 13.2521C4.64777 13.1096 5.00665 13.025 5.28794 13.1007C5.38766 13.1275 5.54014 13.1283 5.65188 13.1411C5.78185 13.1562 5.91144 13.1745 6.03521 13.1982C6.1485 13.2195 6.36034 13.2576 6.32426 13.3302C6.2874 13.4051 6.04607 13.4226 5.90911 13.4346C5.67981 13.4552 5.39154 13.4405 5.17815 13.4797C4.86543 13.5368 4.5659 13.3834 4.60509 13.2521" fill="#FCCC5A"/>
<path d="M4.78433 14.2633C4.97988 14.2508 5.1727 14.231 5.36708 14.2159C5.54789 14.2015 5.75391 14.1751 5.9316 14.2042C6.05382 14.224 6.13452 14.2769 6.09882 14.337C5.98398 14.5296 5.39696 14.6104 5.0144 14.6399C4.78433 14.6574 4.54844 14.6123 4.48209 14.5036C4.42661 14.412 4.55116 14.2776 4.78433 14.2633Z" fill="#FCCC5A"/>
<path d="M5.63477 15.4958C5.86291 15.4002 6.17989 15.3207 6.45381 15.2737C6.58184 15.2519 6.73044 15.3082 6.72462 15.3669C6.71609 15.4507 6.67224 15.5191 6.56438 15.5932C6.45846 15.6658 6.30482 15.7458 6.12984 15.7854C5.94865 15.8266 5.72906 15.8142 5.60257 15.7381C5.4854 15.6674 5.48268 15.5594 5.63477 15.4958" fill="#FCCC5A"/>
<path d="M7.26323 16.3985C7.40639 16.2715 7.67915 16.0793 8.00622 16.0428C8.1261 16.0296 8.26229 16.0599 8.29333 16.1166C8.37558 16.2661 8.13696 16.4614 7.95073 16.5798C7.65664 16.7674 7.02849 16.6074 7.26323 16.3985" fill="#FCCC5A"/>
<path d="M9.58679 16.8244C9.59105 16.8213 9.59649 16.8174 9.59804 16.8143C9.61046 16.7918 9.64227 16.7673 9.66322 16.746C9.70125 16.706 9.73655 16.6613 9.78699 16.6245C9.84403 16.5829 9.96818 16.5212 10.0892 16.548C10.2596 16.5856 10.251 16.7009 10.2599 16.7732C10.2727 16.8733 10.2844 16.9615 10.1901 17.0547C10.0683 17.175 9.67913 17.1661 9.52006 17.0729C9.37146 16.9863 9.42771 16.8858 9.58679 16.8244" fill="#FCCC5A"/>
<path d="M12.8816 15.4545C13.0845 15.4122 13.3286 15.4456 13.549 15.4786C13.7689 15.5116 13.9656 15.545 14.0739 15.5031C14.2497 15.4347 13.9144 15.2654 14.0906 15.1396C14.3532 14.9525 15.4237 15.0942 15.5285 14.9793C15.6499 14.8453 14.2815 14.5712 14.4072 14.3813C14.5034 14.2361 15.3795 14.2827 15.504 14.1025C15.5878 13.9818 15.2743 13.842 15.1882 13.8036C14.872 13.663 14.5418 13.6599 14.2403 13.5982C13.7177 13.491 13.5222 13.2588 13.2518 12.9443C12.8545 12.4807 12.8863 12.0955 12.9243 11.6327C12.9581 11.2253 12.9829 10.9963 13.2964 10.7198C13.5827 10.4678 13.973 10.2966 14.2504 10.1937C13.975 10.2426 13.663 10.3063 13.3336 10.3913C13.0372 10.4674 12.7501 10.5544 12.4742 10.6507C12.1611 10.5412 11.8329 10.4445 11.4934 10.3606C12.0048 11.2234 11.9132 11.9122 11.7778 12.3285C11.7204 12.5051 11.3693 13.5104 10.4369 13.5974C10.2984 13.6102 10.0253 13.6405 9.74438 13.7228C9.72847 13.7271 9.42739 13.8653 9.51973 13.9973C9.61168 14.1285 10.0101 14.1344 10.0132 14.2163C10.0163 14.2955 9.64117 14.3153 9.18334 14.4788C8.9715 14.5545 8.61767 14.6811 8.67819 14.7937C8.73678 14.9016 9.1527 14.9536 9.35716 14.9793C9.80878 15.0356 10.0028 14.9835 10.1347 15.0511C10.3132 15.1427 10.0625 15.2903 10.2635 15.3749C10.3147 15.3967 10.3826 15.4087 10.6177 15.418C10.901 15.4289 11.1085 15.4235 11.256 15.4176C11.3681 15.4134 11.4457 15.4091 11.4953 15.4122C11.7766 15.4293 12.0703 15.7372 12.1479 16.9801C12.2993 16.5499 12.451 16.1201 12.6023 15.6898C12.6341 15.5994 12.6884 15.4949 12.8816 15.4545" fill="#F79166"/>
<path d="M11.2711 13.6207C11.1477 13.6618 11.0107 13.7003 10.9366 13.7593C10.8625 13.8179 10.8823 13.9049 11.0235 13.9344C11.0658 13.9433 11.1147 13.9461 11.1558 13.9562C11.3277 13.9981 11.2319 14.1084 11.1372 14.1825C11.0293 14.2672 10.9486 14.358 10.8986 14.4516C10.8772 14.4912 10.8707 14.5409 10.9494 14.5634C11.0138 14.5821 11.0999 14.5716 11.1775 14.5724C11.3843 14.5739 11.5384 14.6555 11.6152 14.737C11.692 14.8185 11.7265 14.9094 11.8484 14.9801C11.9341 15.0298 12.0835 15.0682 12.2204 15.0484C12.4622 15.0131 12.4331 14.8477 12.6488 14.7894C12.8331 14.7397 13.0961 14.7949 13.2882 14.7506C13.5241 14.6958 13.4717 14.5475 13.3755 14.4407C13.2789 14.3343 13.1908 14.1938 13.4015 14.1231C13.4581 14.1037 13.5303 14.0936 13.5823 14.0719C13.6766 14.0327 13.6781 13.9666 13.625 13.9154C13.5722 13.8645 13.4756 13.8241 13.3867 13.783C12.8847 13.55 12.57 13.2452 12.5072 12.9307C12.4951 12.8709 12.4063 12.787 12.2806 12.8142C12.2228 12.8266 12.2053 12.8573 12.1937 12.8845C12.0707 13.1742 11.8643 13.4374 11.2711 13.6207" fill="#FBC3A3"/>
<path d="M12.4742 10.6508H12.5126V10.6374H12.4742V10.6508Z" fill="#E6F295"/>
<path d="M12.4874 10.646C12.4901 10.6452 12.4925 10.6444 12.4952 10.6433C12.496 10.6433 12.4967 10.6429 12.4975 10.6425C12.494 10.6437 12.4909 10.6448 12.4874 10.646M12.5014 10.6413C12.5049 10.6402 12.5084 10.6386 12.5119 10.6375C12.5123 10.6375 12.5123 10.6375 12.5126 10.6375C12.5088 10.6386 12.5053 10.6398 12.5014 10.6413ZM12.5204 10.6347C12.522 10.634 12.5239 10.6336 12.5254 10.6328C12.5239 10.6336 12.522 10.634 12.5204 10.6347ZM12.5359 10.6293C12.5367 10.6289 12.5375 10.6289 12.5383 10.6285C12.5375 10.6289 12.5367 10.6289 12.5359 10.6293Z" fill="#E8A13A"/>
<path d="M12.4257 11.5946C12.4315 11.2257 12.2953 10.8569 12.0269 10.5062C12.1789 10.5517 12.3283 10.5998 12.4742 10.6507C12.4785 10.6491 12.4827 10.6476 12.487 10.6464C12.487 10.646 12.4874 10.646 12.4874 10.646C12.4909 10.6449 12.494 10.6437 12.4975 10.6425C12.4983 10.6421 12.499 10.6421 12.4998 10.6418C12.5006 10.6414 12.501 10.6414 12.5014 10.6414C12.5052 10.6398 12.5087 10.6386 12.5126 10.6375C12.5153 10.6363 12.5177 10.6355 12.5204 10.6348C12.5219 10.634 12.5239 10.6336 12.5254 10.6328C12.5289 10.6317 12.5324 10.6305 12.5359 10.6293C12.5367 10.6289 12.5374 10.6289 12.5382 10.6286C12.7912 10.542 13.0535 10.4635 13.3239 10.3936C12.8335 10.7621 12.5243 11.1737 12.4257 11.5946" fill="#E7CA4E"/>
</g>
</svg>
