<svg width="27" height="26" viewBox="0 0 27 26" fill="none" xmlns="http://www.w3.org/2000/svg">
<path opacity="0.7" d="M24.9308 15.2688C24.5273 20.9128 19.2279 25.0683 13.8381 25.2159C8.11573 25.3726 2.51648 21.0048 2.08658 15.2688C1.70768 10.2139 5.44799 5.49436 8.94143 4.61044C10.3346 4.25826 12.8179 4.2302 13.5087 4.22243C14.1873 4.2151 16.3412 4.19093 17.5724 4.44255C21.1291 5.16936 25.3145 9.90143 24.9308 15.2688Z" fill="#E62823"/>
<path opacity="0.7" d="M24.7889 16.3634V16.363V16.3634ZM24.7912 16.3509C24.7912 16.3509 24.7912 16.3509 24.7913 16.3505C24.7912 16.3509 24.7912 16.3509 24.7912 16.3509ZM24.8002 16.3021C24.8003 16.3017 24.8004 16.3013 24.8005 16.3004C24.8005 16.3008 24.8003 16.3017 24.8002 16.3021ZM24.8026 16.2892L24.8027 16.2887L24.8026 16.2892ZM24.8089 16.2542C24.8091 16.2529 24.8093 16.2516 24.8095 16.2503C24.8093 16.2516 24.8091 16.2529 24.8089 16.2542ZM24.8112 16.2408C24.8115 16.2395 24.8117 16.2378 24.8119 16.2365C24.8116 16.2382 24.8115 16.2391 24.8112 16.2408ZM24.8172 16.2059C24.8175 16.2041 24.8178 16.2024 24.8181 16.2007C24.8178 16.2028 24.8176 16.2041 24.8172 16.2059ZM24.8196 16.1921C24.8199 16.1903 24.8202 16.1886 24.8205 16.1869C24.8202 16.1886 24.8199 16.1903 24.8196 16.1921ZM24.8219 16.1782C24.8222 16.1765 24.8226 16.1744 24.8229 16.1726C24.8226 16.1744 24.8223 16.1765 24.8219 16.1782ZM24.8254 16.1575C24.8257 16.1554 24.826 16.1536 24.8264 16.1519C24.8261 16.1536 24.8257 16.1558 24.8254 16.1575ZM24.8277 16.1437C24.8281 16.1411 24.8284 16.1394 24.8287 16.1372C24.8284 16.1394 24.8281 16.1416 24.8277 16.1437ZM24.83 16.1295C24.8304 16.1273 24.8308 16.1252 24.8311 16.1226C24.8308 16.1252 24.8304 16.1273 24.83 16.1295ZM24.8328 16.1122C24.8334 16.1092 24.8339 16.1057 24.8344 16.1023C24.8339 16.1057 24.8334 16.1092 24.8328 16.1122ZM24.8355 16.0958C24.8359 16.0932 24.8363 16.0906 24.8367 16.0876C24.8363 16.0906 24.8359 16.0932 24.8355 16.0958ZM24.8378 16.0811C24.8383 16.0781 24.8386 16.076 24.8391 16.0729C24.8387 16.0755 24.8382 16.0785 24.8378 16.0811ZM24.8401 16.0665C24.8406 16.063 24.8412 16.06 24.8417 16.0565C24.8412 16.06 24.8406 16.063 24.8401 16.0665ZM24.843 16.0475C24.8435 16.0445 24.8439 16.0419 24.8444 16.0388C24.844 16.0414 24.8435 16.0449 24.843 16.0475ZM24.8454 16.0324C24.8458 16.0298 24.8463 16.0268 24.8467 16.0237C24.8463 16.0268 24.8458 16.0293 24.8454 16.0324ZM24.8476 16.0177C24.8481 16.0147 24.8486 16.0108 24.8491 16.0078C24.8486 16.0112 24.8481 16.0142 24.8476 16.0177ZM24.8498 16.0034C24.8505 15.9987 24.8511 15.994 24.8519 15.9892C24.8512 15.994 24.8504 15.9987 24.8498 16.0034ZM24.8526 15.984C24.8531 15.981 24.8536 15.9776 24.8541 15.9745C24.8536 15.9776 24.8531 15.981 24.8526 15.984ZM24.8548 15.9689C24.8553 15.9659 24.8558 15.9624 24.8563 15.9594C24.8558 15.9624 24.8553 15.9659 24.8548 15.9689ZM24.857 15.9542C24.8577 15.9495 24.8583 15.9448 24.859 15.94C24.8583 15.9448 24.8577 15.9495 24.857 15.9542ZM24.8595 15.9365C24.8601 15.9327 24.8606 15.9292 24.8611 15.9253C24.8606 15.9292 24.8601 15.9327 24.8595 15.9365ZM24.8619 15.9197C24.8623 15.9167 24.8628 15.9137 24.8632 15.9102C24.8628 15.9132 24.8623 15.9167 24.8619 15.9197ZM24.8639 15.905C24.8645 15.9012 24.8651 15.8968 24.8656 15.893C24.8651 15.8973 24.8645 15.9012 24.8639 15.905ZM24.866 15.8904C24.8667 15.8856 24.8673 15.8809 24.868 15.8757C24.8673 15.8804 24.8666 15.8856 24.866 15.8904ZM24.8685 15.8718C24.8689 15.8684 24.8695 15.8645 24.8699 15.861C24.8695 15.8649 24.869 15.8684 24.8685 15.8718ZM24.8706 15.8558C24.8711 15.8524 24.8716 15.8489 24.872 15.8455C24.8716 15.8485 24.8711 15.8524 24.8706 15.8558ZM24.8726 15.8412C24.8733 15.8364 24.8739 15.8312 24.8745 15.8265C24.8739 15.8317 24.8733 15.8364 24.8726 15.8412ZM24.8749 15.8235C24.8754 15.8196 24.876 15.8157 24.8764 15.8118C24.8759 15.8157 24.8755 15.8196 24.8749 15.8235ZM24.8771 15.8071C24.8775 15.8036 24.878 15.8002 24.8784 15.7967C24.878 15.8002 24.8775 15.8036 24.8771 15.8071ZM24.879 15.792C24.8802 15.782 24.8814 15.7721 24.8827 15.7626C24.8814 15.7725 24.8803 15.7816 24.879 15.792ZM24.8832 15.7579C24.8836 15.7548 24.8841 15.7505 24.8846 15.7471C24.8841 15.751 24.8837 15.7544 24.8832 15.7579ZM24.8851 15.7428C24.8856 15.7384 24.8861 15.7346 24.8866 15.7302C24.8861 15.7341 24.8856 15.7389 24.8851 15.7428ZM24.8869 15.7281C24.8875 15.7229 24.8881 15.7177 24.8887 15.7126C24.8881 15.7177 24.8875 15.7225 24.8869 15.7281ZM24.889 15.7104C24.8894 15.7065 24.89 15.7013 24.8905 15.6974C24.89 15.7018 24.8895 15.7061 24.889 15.7104ZM24.8909 15.694C24.8914 15.6897 24.8919 15.6854 24.8924 15.681C24.8919 15.6854 24.8914 15.6892 24.8909 15.694ZM24.8927 15.6789C24.8938 15.6685 24.895 15.6582 24.8962 15.6478C24.895 15.6582 24.8938 15.6685 24.8927 15.6789ZM24.8965 15.6448C24.8969 15.6409 24.8974 15.6366 24.8978 15.6327C24.8974 15.6366 24.8969 15.6409 24.8965 15.6448ZM24.8983 15.6288C24.8987 15.6245 24.8993 15.6198 24.8997 15.6154C24.8993 15.6198 24.8987 15.6245 24.8983 15.6288ZM24.8999 15.6137C24.9004 15.609 24.901 15.6038 24.9015 15.5986C24.901 15.6034 24.9004 15.609 24.8999 15.6137ZM24.9018 15.596C24.9022 15.5917 24.9028 15.587 24.9031 15.5831C24.9027 15.5874 24.9023 15.5913 24.9018 15.596ZM24.9035 15.5796C24.9039 15.5757 24.9044 15.571 24.9048 15.5671C24.9044 15.571 24.9039 15.5757 24.9035 15.5796ZM24.9051 15.5641C24.9061 15.5542 24.9072 15.5438 24.9081 15.5339C24.9072 15.5438 24.9061 15.5542 24.9051 15.5641ZM24.9086 15.5296C24.909 15.5257 24.9093 15.5222 24.9097 15.5179C24.9093 15.5222 24.909 15.5257 24.9086 15.5296ZM24.9101 15.5144C24.9106 15.5097 24.911 15.505 24.9115 15.5002C24.911 15.505 24.9106 15.5097 24.9101 15.5144ZM24.9115 15.4993C24.912 15.4942 24.9125 15.489 24.913 15.4838C24.9125 15.489 24.9121 15.4942 24.9115 15.4993ZM24.9132 15.4812C24.9136 15.4773 24.9141 15.4726 24.9144 15.4687C24.9141 15.4726 24.9137 15.4769 24.9132 15.4812ZM24.9148 15.4648C24.9152 15.4605 24.9156 15.4562 24.9159 15.4519C24.9156 15.4566 24.9152 15.4601 24.9148 15.4648ZM24.9162 15.4497C24.9166 15.4445 24.9171 15.4393 24.9176 15.4342C24.9171 15.4389 24.9166 15.4445 24.9162 15.4497ZM24.9177 15.4324C24.9181 15.4281 24.9185 15.4234 24.9189 15.4191C24.9185 15.4234 24.9181 15.4281 24.9177 15.4324ZM24.9192 15.4147C24.9196 15.4113 24.9199 15.4074 24.9202 15.4035C24.9199 15.4074 24.9196 15.4113 24.9192 15.4147ZM24.9206 15.3992C24.921 15.3945 24.9214 15.3893 24.9218 15.3845C24.9214 15.3893 24.921 15.3945 24.9206 15.3992ZM24.9219 15.3845C24.9223 15.3794 24.9227 15.3742 24.9231 15.369C24.9227 15.3742 24.9223 15.3789 24.9219 15.3845ZM24.9234 15.3655C24.9238 15.3612 24.924 15.3578 24.9244 15.3539C24.9241 15.3578 24.9238 15.3617 24.9234 15.3655ZM24.9247 15.3496C24.925 15.3457 24.9253 15.3414 24.9257 15.3375C24.9253 15.3418 24.925 15.3453 24.9247 15.3496ZM24.9259 15.334C24.9263 15.3293 24.9267 15.3237 24.9271 15.3189C24.9267 15.3237 24.9263 15.3293 24.9259 15.334ZM24.9273 15.3163C24.9276 15.312 24.9279 15.3081 24.9282 15.3038C24.9279 15.3081 24.9276 15.3125 24.9273 15.3163ZM24.9286 15.2991C24.9288 15.2956 24.9291 15.2917 24.9294 15.2883C24.9291 15.2922 24.9289 15.2956 24.9286 15.2991ZM24.9297 15.284C24.9301 15.2788 24.9304 15.274 24.9308 15.2689C24.9473 15.0384 24.9553 14.8088 24.9554 14.5809C24.9553 14.8088 24.9473 15.0384 24.9308 15.2689C24.9304 15.274 24.9301 15.2788 24.9297 15.284ZM8.86304 4.63122C8.8633 4.63122 8.86342 4.63122 8.86368 4.63079C8.86347 4.63122 8.86325 4.63122 8.86304 4.63122ZM8.89478 4.62259C8.89616 4.62259 8.89758 4.62216 8.89892 4.62173C8.89745 4.62216 8.89629 4.62215 8.89478 4.62259ZM8.90383 4.62043C8.90539 4.62 8.9069 4.61957 8.90841 4.61914C8.90694 4.61957 8.9053 4.62 8.90383 4.62043ZM8.91306 4.61784C8.91479 4.61741 8.91677 4.61698 8.9185 4.61655C8.91677 4.61698 8.91479 4.61741 8.91306 4.61784ZM8.92242 4.61568C8.92449 4.61482 8.92665 4.61439 8.92876 4.61395C8.92661 4.61439 8.92454 4.61482 8.92242 4.61568ZM8.93187 4.61309C8.93502 4.61223 8.93825 4.61137 8.94144 4.61051C8.93821 4.61137 8.93506 4.61223 8.93187 4.61309ZM17.5344 4.43484C17.5249 4.43311 17.5155 4.43096 17.5059 4.42923C17.5155 4.43096 17.5249 4.43311 17.5344 4.43484ZM17.489 4.42621C17.4844 4.42534 17.4797 4.42448 17.475 4.42362C17.4797 4.42448 17.4844 4.42534 17.489 4.42621ZM17.4629 4.42146C17.4537 4.41973 17.4444 4.41801 17.4352 4.41629C17.4444 4.41801 17.4537 4.41973 17.4629 4.42146ZM17.4348 4.41629C17.4319 4.41542 17.4291 4.41499 17.4262 4.41456C17.4291 4.41499 17.4319 4.41542 17.4348 4.41629ZM13.5087 4.2225C13.6633 4.22077 13.8942 4.21818 14.1735 4.21818C13.8943 4.21818 13.6632 4.22077 13.5087 4.2225ZM14.311 4.21861C14.2642 4.21818 14.2184 4.21818 14.174 4.21818C14.2184 4.21818 14.2642 4.21818 14.311 4.21861Z" fill="#F1C1C6"/>
<path opacity="0.7" d="M17.4126 24.5339C18.6171 23.9085 19.7245 23.1045 20.6665 22.1265C22.6127 20.1066 23.8146 17.3379 23.7681 14.532C23.7217 11.7262 22.3703 8.93074 20.0876 7.30101C19.5612 6.92552 18.9491 6.60225 18.3105 6.60225C18.2482 6.60225 18.1856 6.60527 18.1229 6.61174C17.3887 6.68641 16.7718 7.19958 16.0562 7.37999C15.4869 7.52328 14.8789 7.44948 14.3124 7.60357C13.4142 7.84742 12.6668 8.64674 11.7491 8.64674C11.7188 8.64674 11.6883 8.64588 11.6576 8.64415C10.9111 8.60056 10.2932 8.01056 9.55259 7.90697C9.46431 7.89489 9.37603 7.88971 9.28766 7.88971C8.83781 7.88971 8.38709 8.02438 7.93326 8.03689C7.91899 8.03732 7.90467 8.03732 7.89027 8.03732C7.35713 8.03732 6.74887 7.76887 6.67526 7.24491C6.63183 6.93588 6.30342 6.7546 5.98458 6.7546C5.91842 6.7546 5.85266 6.76237 5.78995 6.77834C5.4251 6.872 5.14219 7.15038 4.861 7.40157C4.80851 7.44818 4.75379 7.49437 4.69794 7.53926C5.91338 6.07786 7.40634 5.02302 8.86304 4.63113C8.86325 4.63113 8.86347 4.63113 8.86368 4.6307C8.87399 4.62811 8.88447 4.62552 8.89478 4.6225C8.89629 4.62207 8.89745 4.62207 8.89892 4.62164C8.90056 4.62121 8.90219 4.62077 8.90383 4.62034C8.9053 4.61991 8.90694 4.61948 8.9084 4.61905C8.91004 4.61862 8.91142 4.61818 8.91306 4.61775C8.91479 4.61732 8.91677 4.61689 8.9185 4.61646C8.91983 4.61603 8.92104 4.61603 8.92242 4.61559C8.92453 4.61473 8.9266 4.6143 8.92876 4.61387C8.92984 4.61343 8.93079 4.61344 8.93187 4.61301C8.93506 4.61214 8.93821 4.61128 8.94144 4.61042C10.3347 4.25823 12.8179 4.23018 13.5087 4.22241C13.6632 4.22068 13.8943 4.21809 14.1735 4.21809C14.1737 4.21809 14.1738 4.21809 14.174 4.21809C14.2184 4.21809 14.2642 4.21809 14.311 4.21852C15.211 4.22111 16.5206 4.25348 17.4262 4.41447C17.4291 4.4149 17.4319 4.41533 17.4348 4.4162C17.4349 4.4162 17.4351 4.4162 17.4352 4.4162C17.4444 4.41792 17.4537 4.41965 17.4629 4.42137C17.467 4.42181 17.471 4.42267 17.475 4.42353C17.4797 4.42439 17.4844 4.42526 17.489 4.42612C17.4947 4.42698 17.5003 4.42828 17.5059 4.42915C17.5155 4.43087 17.5249 4.43303 17.5344 4.43475C17.5471 4.43734 17.5598 4.43994 17.5724 4.44252C20.9763 5.13826 24.956 9.50217 24.9554 14.5808C24.9553 14.8087 24.9473 15.0383 24.9308 15.2688C24.9304 15.274 24.9301 15.2787 24.9297 15.2839C24.9296 15.2852 24.9295 15.2869 24.9294 15.2882C24.9291 15.2917 24.9288 15.2955 24.9286 15.299C24.9285 15.3007 24.9284 15.3024 24.9282 15.3037C24.9279 15.3081 24.9276 15.3119 24.9273 15.3163C24.9272 15.3171 24.9272 15.3176 24.9271 15.3188C24.9267 15.3236 24.9263 15.3292 24.9259 15.334C24.9258 15.3352 24.9257 15.3361 24.9256 15.3374C24.9253 15.3413 24.925 15.3456 24.9247 15.3495C24.9246 15.3508 24.9245 15.3521 24.9244 15.3538C24.924 15.3577 24.9237 15.3611 24.9234 15.3655C24.9233 15.3663 24.9232 15.3676 24.9231 15.3689C24.9227 15.3741 24.9223 15.3793 24.9219 15.3844H24.9218C24.9214 15.3892 24.921 15.3944 24.9206 15.3991C24.9205 15.4008 24.9203 15.4017 24.9202 15.4034C24.9199 15.4073 24.9196 15.4112 24.9192 15.4147C24.9191 15.4164 24.919 15.4177 24.9189 15.419C24.9185 15.4233 24.9181 15.428 24.9177 15.4324C24.9177 15.4328 24.9176 15.4337 24.9176 15.4341C24.9171 15.4393 24.9166 15.4444 24.9162 15.4496C24.9161 15.4505 24.916 15.4509 24.9159 15.4518C24.9156 15.4561 24.9152 15.4604 24.9148 15.4647C24.9147 15.4656 24.9145 15.4673 24.9144 15.4686C24.914 15.4725 24.9136 15.4772 24.9132 15.4811C24.9132 15.482 24.9131 15.4829 24.913 15.4837C24.9125 15.4889 24.912 15.4941 24.9115 15.4993C24.9115 15.4997 24.9115 15.4997 24.9115 15.5001C24.911 15.5049 24.9106 15.5096 24.9101 15.5144C24.9099 15.5157 24.9098 15.5169 24.9097 15.5178C24.9093 15.5221 24.909 15.5256 24.9086 15.5295C24.9084 15.5312 24.9083 15.5321 24.9081 15.5338C24.9072 15.5437 24.9061 15.5541 24.9051 15.564C24.905 15.5649 24.9049 15.5662 24.9048 15.567C24.9044 15.5709 24.9039 15.5756 24.9035 15.5795C24.9034 15.5808 24.9033 15.5817 24.9031 15.583C24.9028 15.5869 24.9022 15.5916 24.9018 15.5959C24.9017 15.5968 24.9016 15.5977 24.9015 15.5985C24.901 15.6037 24.9004 15.6089 24.8999 15.6136C24.8998 15.6145 24.8998 15.6145 24.8997 15.6154C24.8993 15.6197 24.8987 15.6244 24.8983 15.6287C24.8981 15.63 24.898 15.6313 24.8978 15.6326C24.8974 15.6365 24.8969 15.6408 24.8965 15.6447C24.8964 15.6456 24.8962 15.6469 24.8962 15.6477C24.895 15.6581 24.8938 15.6684 24.8927 15.6788C24.8926 15.6797 24.8925 15.6801 24.8924 15.681C24.8919 15.6853 24.8914 15.6896 24.8909 15.6939C24.8908 15.6948 24.8906 15.6961 24.8905 15.6974C24.89 15.7012 24.8894 15.7064 24.8889 15.7103C24.8889 15.7107 24.8888 15.712 24.8887 15.7125C24.8881 15.7176 24.8875 15.7228 24.8869 15.728C24.8868 15.7284 24.8867 15.7293 24.8866 15.7302C24.8861 15.7345 24.8856 15.7384 24.8851 15.7427C24.8849 15.7444 24.8847 15.7457 24.8845 15.747C24.8841 15.7504 24.8836 15.7548 24.8832 15.7578C24.883 15.7595 24.8828 15.7608 24.8827 15.7625C24.8814 15.772 24.8802 15.7819 24.879 15.7919C24.8788 15.7932 24.8786 15.7949 24.8784 15.7966C24.878 15.8001 24.8775 15.8035 24.8771 15.807C24.8769 15.8083 24.8767 15.81 24.8764 15.8117C24.876 15.8156 24.8754 15.8195 24.8749 15.8234C24.8748 15.8243 24.8747 15.8255 24.8745 15.8264C24.8739 15.8312 24.8733 15.8363 24.8726 15.8411C24.8724 15.8424 24.8722 15.8441 24.872 15.8454C24.8716 15.8489 24.8711 15.8523 24.8706 15.8558C24.8704 15.8579 24.8702 15.8592 24.8699 15.8609C24.8695 15.8644 24.8689 15.8683 24.8685 15.8717C24.8683 15.873 24.8682 15.8743 24.868 15.8756C24.8673 15.8808 24.8667 15.8855 24.866 15.8903C24.8658 15.8911 24.8657 15.892 24.8656 15.8929C24.8651 15.8968 24.8645 15.9011 24.8639 15.905C24.8637 15.9071 24.8635 15.9084 24.8632 15.9101C24.8628 15.9136 24.8623 15.9166 24.8619 15.9196C24.8616 15.9218 24.8613 15.9235 24.8611 15.9252C24.8606 15.9291 24.8601 15.9326 24.8595 15.9365C24.8594 15.9378 24.8592 15.9386 24.859 15.9399C24.8583 15.9447 24.8577 15.9494 24.857 15.9542C24.8568 15.9559 24.8565 15.9576 24.8563 15.9593C24.8558 15.9624 24.8553 15.9658 24.8548 15.9688C24.8545 15.971 24.8544 15.9723 24.8541 15.9744C24.8536 15.9775 24.8531 15.9809 24.8526 15.9839C24.8523 15.9861 24.8521 15.9874 24.8519 15.9891C24.8511 15.9939 24.8505 15.9986 24.8498 16.0034C24.8495 16.0047 24.8493 16.0064 24.8491 16.0077C24.8486 16.0107 24.8481 16.0146 24.8476 16.0176C24.8473 16.0198 24.847 16.0219 24.8467 16.0236C24.8463 16.0267 24.8458 16.0297 24.8454 16.0323C24.845 16.0344 24.8447 16.0366 24.8444 16.0388C24.8439 16.0418 24.8435 16.0444 24.843 16.0474C24.8426 16.0504 24.8421 16.0534 24.8417 16.0565C24.8412 16.0599 24.8406 16.0629 24.8401 16.0664C24.8397 16.0685 24.8395 16.0707 24.8391 16.0729C24.8386 16.0759 24.8383 16.078 24.8378 16.081C24.8374 16.0832 24.8371 16.0854 24.8367 16.0875C24.8363 16.0905 24.8359 16.0931 24.8355 16.0957C24.8351 16.0979 24.8347 16.1 24.8344 16.1022C24.8339 16.1057 24.8334 16.1091 24.8328 16.1121C24.8322 16.116 24.8317 16.119 24.8311 16.1225C24.8308 16.1251 24.8304 16.1272 24.83 16.1294C24.8296 16.132 24.8291 16.135 24.8287 16.1372C24.8284 16.1393 24.8281 16.141 24.8277 16.1436C24.8272 16.1462 24.8268 16.1488 24.8264 16.1518C24.826 16.1536 24.8257 16.1553 24.8254 16.1574C24.8246 16.1626 24.8237 16.1674 24.8229 16.1725C24.8226 16.1743 24.8222 16.1764 24.8219 16.1782C24.8215 16.1807 24.8209 16.1842 24.8205 16.1868C24.8202 16.1885 24.8199 16.1902 24.8196 16.192C24.8191 16.195 24.8186 16.198 24.8181 16.2006C24.8178 16.2023 24.8175 16.2041 24.8172 16.2058C24.8155 16.2157 24.8136 16.2265 24.8119 16.2364C24.8117 16.2377 24.8114 16.2394 24.8112 16.2407C24.8107 16.2438 24.81 16.2472 24.8095 16.2502C24.8093 16.2515 24.8091 16.2528 24.8089 16.2541C24.8068 16.2658 24.8048 16.277 24.8026 16.2887L24.8026 16.2891C24.8019 16.293 24.8012 16.2964 24.8005 16.3003C24.8004 16.3012 24.8003 16.3016 24.8002 16.302C24.7973 16.318 24.7943 16.3344 24.7913 16.3504C24.7912 16.3508 24.7912 16.3508 24.7912 16.3508C24.7904 16.3551 24.7897 16.359 24.7889 16.3629V16.3633C24.0608 20.2171 21.0314 23.2396 17.4126 24.5339Z" fill="#D82425"/>
<path opacity="0.7" d="M15.5198 1.82318C15.6783 1.29577 15.9678 0.807627 16.3551 0.416166C16.0211 0.919412 15.2606 0.939702 14.8469 1.3795C14.711 1.52409 14.6216 1.70536 14.5407 1.88663C14.0569 2.97038 13.7149 4.26949 12.6644 4.82064C11.7968 5.27598 10.7405 5.04637 9.80352 4.76022C9.15713 4.56255 8.51053 4.34027 7.93893 3.97945C7.03973 3.4119 6.23046 2.47705 5.16907 2.53575C5.76771 3.25134 6.49349 3.8599 7.30216 4.3243C7.97589 4.71145 8.73337 5.02134 9.2047 5.63939C9.30687 5.77362 9.3961 5.94971 9.32947 6.10465C9.25908 6.26823 9.05647 6.31916 8.88121 6.34938C8.17302 6.47195 7.35378 6.56517 6.81931 6.08437C6.32551 5.63982 6.26453 4.85431 5.7775 4.40286C5.90283 4.87417 6.02815 5.34547 6.15348 5.81678C6.33961 6.51683 6.62869 7.32694 7.32502 7.52505C7.93858 7.69941 8.62214 7.30062 9.21867 7.52678C9.44742 7.61353 9.63316 7.78271 9.83556 7.91996C10.613 8.44781 11.6979 8.47846 12.504 7.99593C12.8226 7.80473 13.0948 7.54491 13.4089 7.3468C14.7548 6.49741 16.632 6.90484 17.949 6.01186C18.1818 5.85389 18.3931 5.65363 18.5201 5.40287C18.6382 5.16938 18.6777 4.90352 18.6914 4.6424C18.758 3.37695 18.2271 2.09293 17.2866 1.24441C17.5117 1.54739 17.9203 2.18788 17.9877 3.07741C18.0142 3.42614 18.0462 3.84782 17.8311 4.27942C17.3323 5.27943 15.8223 5.69205 15.0417 5.22808C14.956 5.17715 14.6442 4.98336 14.5538 4.6411C14.492 4.40674 14.544 4.14605 14.7013 3.86724C15.1007 3.15985 15.2851 2.60481 15.5198 1.82318Z" fill="#6B9C2F"/>
<path opacity="0.7" d="M12.1439 2.11929C12.0525 1.87932 11.9487 1.63072 11.7502 1.46801C11.5516 1.3053 11.229 1.26472 11.0495 1.44815C11.5344 2.85344 11.7975 4.33469 11.826 5.82112C12.0495 5.94715 12.2811 6.07576 12.5362 6.10295C13.4878 6.20438 13.0263 5.12236 12.9064 4.61049C12.7082 3.76455 12.4534 2.93156 12.1439 2.11929Z" fill="#6B9C2F"/>
<path opacity="0.7" d="M13.5257 7.23113C13.0916 7.67999 12.3953 7.77797 11.7811 7.66576C11.1669 7.55354 10.6021 7.26393 10.022 7.03302C9.44185 6.80169 8.80828 6.62603 8.19739 6.75508C8.59769 6.96484 8.96466 7.23674 9.28517 7.55526C9.48412 7.64719 9.65322 7.79652 9.8356 7.91996C10.6131 8.44781 11.6979 8.47846 12.504 7.99593C12.8226 7.80473 13.0948 7.54491 13.409 7.3468C13.4468 7.32263 13.4852 7.30019 13.5238 7.27818L13.5257 7.23113Z" fill="#88B744"/>
<path opacity="0.7" d="M12.144 2.11929C12.0525 1.87932 11.9488 1.63072 11.7502 1.46801C11.6839 1.41363 11.6035 1.37478 11.5195 1.35148C12.3789 2.74468 12.6965 4.46719 12.3962 6.07663C12.4422 6.08828 12.4887 6.09778 12.5362 6.10295C13.4878 6.20438 13.0263 5.12236 12.9064 4.61049C12.7082 3.76455 12.4534 2.93156 12.144 2.11929Z" fill="#5D842B"/>
<path opacity="0.7" d="M20.865 13.2977C21.0352 12.6624 21.2427 11.6136 20.9103 10.3568C20.6571 9.39949 20.0451 8.50952 19.1584 8.07059C18.3666 7.67826 17.4342 7.67222 16.5645 7.82716C15.6947 7.98211 14.8591 8.28682 14 8.49269C12.3123 8.8971 10.5333 8.91523 8.83777 8.54406C7.73334 8.30279 6.58759 7.89838 5.50342 8.21906C4.26767 8.58462 3.46711 9.82073 3.16092 11.0737C2.55623 13.5476 3.60584 16.3422 5.68913 17.8049C6.90013 18.6551 8.37955 19.0596 9.85388 19.1808C11.7876 19.3397 14.0366 19.8032 16.4438 18.6107C18.7209 17.4825 20.3031 15.3935 20.865 13.2977Z" fill="#EF3723"/>
<path opacity="0.7" d="M20.7537 15.101C20.6389 15.101 20.5247 15.0966 20.4133 15.0893C20.3236 15.0833 20.2334 15.0759 20.1429 15.0669C20.4615 14.4924 20.7048 13.8955 20.865 13.2977C21.0352 12.6624 21.2427 11.6136 20.9103 10.3568C20.6571 9.39952 20.0452 8.50956 19.1584 8.07062C19.0495 8.01667 18.938 7.96963 18.8243 7.92992C18.9092 7.86 19.0076 7.82892 19.1159 7.82892C19.9266 7.82892 21.2855 9.58381 21.568 9.99901C22.2714 11.0318 22.7293 12.274 22.6326 13.52C22.6048 13.88 22.5249 14.2503 22.3021 14.5338C21.9483 14.9836 21.342 15.1014 20.7537 15.101Z" fill="#EB4040"/>
<path opacity="0.7" d="M20.1429 15.0668C19.2406 14.9766 18.3172 14.7167 17.7325 14.037C17.0673 13.2635 17.0169 12.0697 17.4844 11.163C17.814 10.5233 18.376 9.98252 18.4954 9.27297C18.5522 8.9346 18.5027 8.57767 18.6175 8.25484C18.6709 8.10421 18.7409 7.99846 18.8242 7.92984C18.9379 7.96954 19.0494 8.01659 19.1583 8.07054C20.0451 8.50947 20.6571 9.39944 20.9103 10.3567C21.2427 11.6135 21.0352 12.6623 20.865 13.2976C20.7047 13.8954 20.4615 14.4923 20.1429 15.0668Z" fill="#F25145"/>
<path opacity="0.7" d="M7.65351 15.5986C6.99241 15.5986 6.33223 15.4696 5.72557 15.2046C5.38042 15.0535 5.0474 14.8584 4.79459 14.5788C4.21052 13.9331 4.15791 12.9633 4.30031 12.104C4.3929 11.545 4.57011 10.9706 4.97831 10.5783C5.41001 10.1631 5.99192 10.0344 6.60255 10.0344C7.03632 10.0344 7.48471 10.0996 7.90364 10.1726C8.73547 10.318 9.56933 10.4544 10.3996 10.608C10.8138 10.6844 11.2962 10.7306 11.6081 11.047C12.6108 12.063 11.7289 13.7177 10.8546 14.4566C9.96972 15.2046 8.80999 15.5986 7.65351 15.5986Z" fill="#F46E64"/>
</svg>
