<svg width="25" height="25" viewBox="0 0 25 25" fill="none" xmlns="http://www.w3.org/2000/svg">
<g opacity="0.7">
<path d="M23.4912 14.6816C23.1032 20.1085 18.0076 24.1041 12.8251 24.2461C7.32282 24.3967 1.93893 20.1969 1.52556 14.6816C1.16124 9.82109 4.75769 5.28306 8.11677 4.43314C9.45639 4.0945 11.8441 4.06753 12.5084 4.06006C13.1609 4.053 15.2319 4.02976 16.4157 4.27171C19.8356 4.97057 23.8601 9.52063 23.4912 14.6816" fill="#606060"/>
<path d="M23.3547 15.734V15.7336V15.734ZM23.3569 15.722C23.3569 15.722 23.3569 15.722 23.357 15.7216C23.3569 15.722 23.3569 15.722 23.3569 15.722ZM23.3656 15.6751C23.3657 15.6747 23.3658 15.6743 23.3659 15.6734C23.3658 15.6738 23.3657 15.6747 23.3656 15.6751ZM23.3679 15.6626L23.3679 15.6622L23.3679 15.6626ZM23.3739 15.629C23.3741 15.6278 23.3743 15.6265 23.3745 15.6253C23.3743 15.6265 23.3741 15.6278 23.3739 15.629ZM23.3761 15.6161C23.3764 15.6149 23.3766 15.6132 23.3768 15.612C23.3766 15.6137 23.3764 15.6145 23.3761 15.6161ZM23.382 15.5825C23.3822 15.5809 23.3825 15.5792 23.3828 15.5776C23.3825 15.5796 23.3823 15.5809 23.382 15.5825ZM23.3842 15.5693C23.3845 15.5676 23.3848 15.5659 23.3851 15.5643C23.3848 15.5659 23.3845 15.5676 23.3842 15.5693ZM23.3865 15.556C23.3868 15.5543 23.3871 15.5522 23.3874 15.5506C23.3871 15.5522 23.3868 15.5543 23.3865 15.556ZM23.3898 15.5361C23.3901 15.534 23.3904 15.5323 23.3907 15.5307C23.3905 15.5323 23.3901 15.5344 23.3898 15.5361ZM23.392 15.5228C23.3924 15.5203 23.3927 15.5186 23.393 15.5165C23.3927 15.5186 23.3924 15.5207 23.392 15.5228ZM23.3942 15.5091C23.3946 15.507 23.395 15.5049 23.3953 15.5024C23.395 15.5049 23.3946 15.507 23.3942 15.5091ZM23.3969 15.4925C23.3975 15.4896 23.398 15.4863 23.3985 15.4829C23.398 15.4863 23.3975 15.4896 23.3969 15.4925ZM23.3995 15.4767C23.3999 15.4742 23.4003 15.4717 23.4007 15.4688C23.4003 15.4717 23.3999 15.4742 23.3995 15.4767ZM23.4017 15.4626C23.4022 15.4597 23.4025 15.4576 23.403 15.4547C23.4026 15.4572 23.4021 15.4601 23.4017 15.4626ZM23.4039 15.4485C23.4045 15.4452 23.405 15.4423 23.4055 15.4389C23.405 15.4423 23.4045 15.4452 23.4039 15.4485ZM23.4068 15.4302C23.4072 15.4273 23.4076 15.4248 23.4081 15.4219C23.4077 15.4244 23.4072 15.4277 23.4068 15.4302ZM23.409 15.4157C23.4094 15.4132 23.4099 15.4103 23.4103 15.4074C23.4099 15.4103 23.4094 15.4128 23.409 15.4157ZM23.4112 15.4016C23.4116 15.3987 23.4121 15.395 23.4126 15.392C23.4121 15.3954 23.4116 15.3983 23.4112 15.4016ZM23.4133 15.3879C23.4139 15.3833 23.4145 15.3788 23.4153 15.3742C23.4146 15.3788 23.4139 15.3833 23.4133 15.3879ZM23.416 15.3692C23.4164 15.3663 23.4169 15.363 23.4174 15.3601C23.4169 15.363 23.4164 15.3663 23.416 15.3692ZM23.4181 15.3547C23.4186 15.3518 23.419 15.3485 23.4195 15.3456C23.419 15.3485 23.4186 15.3518 23.4181 15.3547ZM23.4202 15.3406C23.4208 15.336 23.4215 15.3315 23.4221 15.3269C23.4215 15.3315 23.4208 15.336 23.4202 15.3406ZM23.4226 15.3236C23.4231 15.3198 23.4236 15.3165 23.4241 15.3128C23.4236 15.3165 23.4231 15.3198 23.4226 15.3236ZM23.4249 15.3074C23.4253 15.3045 23.4257 15.3016 23.4262 15.2983C23.4257 15.3012 23.4253 15.3045 23.4249 15.3074ZM23.4269 15.2933C23.4274 15.2895 23.4279 15.2854 23.4285 15.2817C23.4279 15.2858 23.4274 15.2895 23.4269 15.2933ZM23.4288 15.2792C23.4295 15.2746 23.4301 15.27 23.4308 15.2651C23.4301 15.2696 23.4294 15.2746 23.4288 15.2792ZM23.4313 15.2613C23.4317 15.258 23.4322 15.2543 23.4326 15.2509C23.4322 15.2547 23.4317 15.258 23.4313 15.2613ZM23.4333 15.246C23.4338 15.2427 23.4342 15.2393 23.4347 15.236C23.4342 15.2389 23.4337 15.2427 23.4333 15.246ZM23.4352 15.2319C23.4358 15.2273 23.4364 15.2223 23.437 15.2177C23.4364 15.2227 23.4358 15.2273 23.4352 15.2319ZM23.4374 15.2148C23.4379 15.2111 23.4384 15.2074 23.4389 15.2036C23.4384 15.2074 23.4379 15.2111 23.4374 15.2148ZM23.4395 15.1991C23.4399 15.1958 23.4403 15.1924 23.4408 15.1891C23.4403 15.1924 23.4399 15.1958 23.4395 15.1991ZM23.4413 15.1845C23.4425 15.175 23.4437 15.1655 23.4449 15.1563C23.4437 15.1659 23.4426 15.1746 23.4413 15.1845ZM23.4454 15.1518C23.4458 15.1489 23.4463 15.1447 23.4467 15.1414C23.4462 15.1451 23.4459 15.1484 23.4454 15.1518ZM23.4472 15.1372C23.4477 15.1331 23.4482 15.1294 23.4486 15.1252C23.4482 15.1289 23.4477 15.1335 23.4472 15.1372ZM23.4489 15.1231C23.4495 15.1181 23.4501 15.1132 23.4507 15.1082C23.4501 15.1132 23.4495 15.1177 23.4489 15.1231ZM23.4509 15.1061C23.4514 15.1024 23.452 15.0974 23.4524 15.0937C23.4519 15.0978 23.4514 15.102 23.4509 15.1061ZM23.4528 15.0903C23.4532 15.0862 23.4538 15.082 23.4542 15.0779C23.4537 15.082 23.4533 15.0858 23.4528 15.0903ZM23.4545 15.0758C23.4556 15.0659 23.4567 15.0559 23.4578 15.0459C23.4567 15.0559 23.4556 15.0659 23.4545 15.0758ZM23.4582 15.043C23.4586 15.0393 23.459 15.0351 23.4595 15.0314C23.459 15.0351 23.4586 15.0393 23.4582 15.043ZM23.4599 15.0277C23.4603 15.0235 23.4608 15.019 23.4613 15.0148C23.4608 15.019 23.4603 15.0235 23.4599 15.0277ZM23.4614 15.0132C23.4619 15.0086 23.4625 15.0036 23.463 14.9986C23.4625 15.0032 23.4619 15.0086 23.4614 15.0132ZM23.4633 14.9961C23.4637 14.992 23.4642 14.9874 23.4646 14.9837C23.4641 14.9878 23.4637 14.9916 23.4633 14.9961ZM23.4649 14.9804C23.4653 14.9766 23.4658 14.9721 23.4662 14.9683C23.4658 14.9721 23.4653 14.9766 23.4649 14.9804ZM23.4665 14.9654C23.4674 14.9559 23.4685 14.9459 23.4694 14.9364C23.4684 14.9459 23.4674 14.9559 23.4665 14.9654ZM23.4698 14.9322C23.4702 14.9285 23.4705 14.9252 23.4709 14.921C23.4705 14.9252 23.4702 14.9285 23.4698 14.9322ZM23.4712 14.9177C23.4717 14.9131 23.4721 14.9086 23.4726 14.904C23.4721 14.9086 23.4717 14.9131 23.4712 14.9177ZM23.4726 14.9032C23.4731 14.8982 23.4736 14.8932 23.4741 14.8882C23.4736 14.8932 23.4731 14.8982 23.4726 14.9032ZM23.4743 14.8857C23.4746 14.882 23.475 14.8774 23.4754 14.8737C23.475 14.8774 23.4747 14.8816 23.4743 14.8857ZM23.4758 14.87C23.4761 14.8658 23.4765 14.8617 23.4769 14.8575C23.4765 14.8621 23.4762 14.8654 23.4758 14.87ZM23.4771 14.8555C23.4775 14.8505 23.478 14.8455 23.4784 14.8405C23.478 14.8451 23.4775 14.8505 23.4771 14.8555ZM23.4786 14.8389C23.4789 14.8347 23.4793 14.8301 23.4797 14.826C23.4793 14.8301 23.4789 14.8347 23.4786 14.8389ZM23.48 14.8218C23.4804 14.8185 23.4807 14.8148 23.481 14.811C23.4807 14.8148 23.4804 14.8185 23.48 14.8218ZM23.4814 14.8069C23.4817 14.8023 23.4821 14.7974 23.4825 14.7928C23.4821 14.7974 23.4817 14.8023 23.4814 14.8069ZM23.4826 14.7928C23.483 14.7878 23.4834 14.7828 23.4838 14.7778C23.4833 14.7828 23.483 14.7874 23.4826 14.7928ZM23.484 14.7745C23.4844 14.7704 23.4846 14.7671 23.485 14.7633C23.4847 14.7671 23.4844 14.7708 23.484 14.7745ZM23.4853 14.7592C23.4856 14.7554 23.4859 14.7513 23.4862 14.7476C23.4859 14.7517 23.4856 14.755 23.4853 14.7592ZM23.4865 14.7442C23.4868 14.7397 23.4872 14.7343 23.4876 14.7297C23.4872 14.7343 23.4868 14.7397 23.4865 14.7442ZM23.4878 14.7272C23.4881 14.7231 23.4884 14.7193 23.4887 14.7152C23.4884 14.7193 23.4881 14.7235 23.4878 14.7272ZM23.489 14.7106C23.4893 14.7073 23.4896 14.7036 23.4898 14.7002C23.4896 14.704 23.4893 14.7073 23.489 14.7106ZM23.4901 14.6961C23.4905 14.6911 23.4908 14.6866 23.4912 14.6816C23.507 14.46 23.5147 14.2392 23.5148 14.0201C23.5147 14.2392 23.507 14.46 23.4912 14.6816C23.4908 14.6866 23.4905 14.6911 23.4901 14.6961ZM8.04138 4.45306C8.04163 4.45306 8.04175 4.45306 8.042 4.45265C8.0418 4.45306 8.04159 4.45306 8.04138 4.45306ZM8.0719 4.44476C8.07323 4.44476 8.0746 4.44435 8.07588 4.44393C8.07447 4.44435 8.07335 4.44435 8.0719 4.44476ZM8.08061 4.44269C8.0821 4.44227 8.08355 4.44186 8.08501 4.44145C8.0836 4.44186 8.08202 4.44227 8.08061 4.44269ZM8.08948 4.4402C8.09114 4.43978 8.09305 4.43937 8.09471 4.43896C8.09305 4.43937 8.09114 4.43978 8.08948 4.4402ZM8.09848 4.43812C8.10047 4.43729 8.10255 4.43688 8.10458 4.43646C8.10251 4.43688 8.10052 4.43729 8.09848 4.43812ZM8.10756 4.43563C8.11059 4.4348 8.1137 4.43398 8.11677 4.43315C8.11366 4.43398 8.11063 4.4348 8.10756 4.43563ZM16.3792 4.26424C16.3701 4.26258 16.3611 4.26051 16.3519 4.25885C16.3611 4.26051 16.3701 4.26258 16.3792 4.26424ZM16.3356 4.25594C16.3311 4.25511 16.3267 4.25428 16.3221 4.25345C16.3267 4.25428 16.3311 4.25511 16.3356 4.25594ZM16.3104 4.25137C16.3017 4.24971 16.2927 4.24806 16.2838 4.2464C16.2927 4.24806 16.3017 4.24971 16.3104 4.25137ZM16.2835 4.2464C16.2807 4.24557 16.278 4.24515 16.2752 4.24473C16.278 4.24515 16.2807 4.24557 16.2835 4.2464ZM12.5084 4.06006C12.657 4.0584 12.879 4.05591 13.1476 4.05591C12.8792 4.05591 12.6569 4.0584 12.5084 4.06006ZM13.2798 4.05632C13.2348 4.05591 13.1908 4.05591 13.148 4.05591C13.1908 4.05591 13.2348 4.05591 13.2798 4.05632Z" fill="#CFCFCF"/>
<path d="M16.2622 23.5903C17.4203 22.989 18.4851 22.2159 19.3909 21.2755C21.2622 19.3333 22.4179 16.671 22.3732 13.9731C22.3286 11.2752 21.0292 8.58726 18.8343 7.02022C18.3281 6.65917 17.7395 6.34833 17.1255 6.34833C17.0656 6.34833 17.0054 6.35123 16.9451 6.35746C16.2392 6.42925 15.646 6.92269 14.9579 7.09616C14.4105 7.23394 13.8259 7.16298 13.2812 7.31113C12.4175 7.54561 11.6988 8.31418 10.8164 8.31418C10.7873 8.31418 10.758 8.31335 10.7285 8.31169C10.0107 8.26978 9.41657 7.70247 8.70443 7.60287C8.61955 7.59125 8.53466 7.58627 8.4497 7.58627C8.01714 7.58627 7.58376 7.71576 7.14739 7.72779C7.13367 7.72821 7.1199 7.72821 7.10605 7.72821C6.59342 7.72821 6.00855 7.47008 5.93777 6.96627C5.89601 6.66913 5.58023 6.49482 5.27366 6.49482C5.21005 6.49482 5.14681 6.50229 5.08651 6.51765C4.73569 6.6077 4.46366 6.87538 4.19329 7.11691C4.14282 7.16173 4.0902 7.20613 4.0365 7.24929C5.20519 5.8441 6.64074 4.82984 8.0414 4.45302C8.04161 4.45302 8.04182 4.45302 8.04202 4.45261C8.05193 4.45012 8.06201 4.44763 8.07192 4.44472C8.07337 4.44431 8.07449 4.44431 8.0759 4.44389C8.07748 4.44348 8.07905 4.44306 8.08063 4.44265C8.08204 4.44223 8.08362 4.44182 8.08503 4.44141C8.0866 4.44099 8.08793 4.44057 8.0895 4.44016C8.09116 4.43974 8.09307 4.43933 8.09473 4.43892C8.09601 4.4385 8.09718 4.4385 8.0985 4.43808C8.10054 4.43725 8.10253 4.43684 8.1046 4.43642C8.10564 4.43601 8.10655 4.43601 8.10758 4.43559C8.11065 4.43476 8.11368 4.43394 8.11679 4.43311C9.45642 4.09447 11.8441 4.06749 12.5084 4.06002C12.657 4.05836 12.8792 4.05587 13.1477 4.05587C13.1478 4.05587 13.1479 4.05587 13.1481 4.05587C13.1908 4.05587 13.2348 4.05587 13.2798 4.05628C14.1452 4.05877 15.4044 4.0899 16.2752 4.24469C16.278 4.24511 16.2807 4.24553 16.2835 4.24636C16.2836 4.24636 16.2838 4.24636 16.2838 4.24636C16.2927 4.24802 16.3017 4.24967 16.3105 4.25133C16.3144 4.25175 16.3183 4.25258 16.3222 4.25341C16.3267 4.25424 16.3312 4.25507 16.3356 4.2559C16.3411 4.25673 16.3465 4.25798 16.3519 4.25881C16.3611 4.26047 16.3701 4.26254 16.3792 4.2642C16.3915 4.26669 16.4037 4.26918 16.4158 4.27167C19.6887 4.94065 23.5154 9.13671 23.5148 14.02C23.5148 14.2391 23.507 14.4599 23.4912 14.6815C23.4908 14.6865 23.4905 14.6911 23.4901 14.6961C23.49 14.6973 23.4899 14.699 23.4898 14.7002C23.4896 14.7035 23.4893 14.7073 23.489 14.7106C23.4889 14.7122 23.4888 14.7139 23.4887 14.7151C23.4884 14.7193 23.4881 14.723 23.4878 14.7272C23.4877 14.728 23.4877 14.7284 23.4876 14.7297C23.4873 14.7342 23.4868 14.7396 23.4865 14.7442C23.4864 14.7454 23.4863 14.7463 23.4862 14.7475C23.4859 14.7512 23.4856 14.7554 23.4853 14.7591C23.4852 14.7604 23.4851 14.7616 23.485 14.7633C23.4846 14.767 23.4844 14.7703 23.4841 14.7745C23.484 14.7753 23.4839 14.7766 23.4838 14.7778C23.4834 14.7828 23.483 14.7878 23.4826 14.7927H23.4825C23.4822 14.7973 23.4817 14.8023 23.4814 14.8069C23.4812 14.8085 23.4811 14.8093 23.481 14.811C23.4807 14.8147 23.4804 14.8185 23.48 14.8218C23.48 14.8235 23.4798 14.8247 23.4797 14.8259C23.4793 14.8301 23.479 14.8347 23.4786 14.8388C23.4786 14.8392 23.4785 14.8401 23.4785 14.8405C23.478 14.8455 23.4776 14.8504 23.4771 14.8554C23.4771 14.8562 23.477 14.8567 23.4769 14.8575C23.4766 14.8616 23.4761 14.8658 23.4758 14.8699C23.4757 14.8708 23.4755 14.8724 23.4754 14.8737C23.4751 14.8774 23.4747 14.882 23.4743 14.8857C23.4742 14.8865 23.4742 14.8874 23.4741 14.8882C23.4736 14.8932 23.4731 14.8982 23.4727 14.9031C23.4726 14.9036 23.4726 14.9036 23.4726 14.904C23.4721 14.9085 23.4717 14.9131 23.4713 14.9177C23.4711 14.9189 23.471 14.9202 23.4709 14.921C23.4705 14.9251 23.4702 14.9285 23.4698 14.9322C23.4697 14.9338 23.4696 14.9347 23.4694 14.9363C23.4685 14.9459 23.4674 14.9558 23.4665 14.9654C23.4664 14.9662 23.4663 14.9675 23.4662 14.9683C23.4658 14.972 23.4653 14.9766 23.4649 14.9803C23.4648 14.9816 23.4647 14.9824 23.4646 14.9836C23.4642 14.9874 23.4637 14.9919 23.4633 14.9961C23.4632 14.9969 23.4631 14.9978 23.463 14.9986C23.4625 15.0036 23.462 15.0085 23.4614 15.0131C23.4614 15.0139 23.4613 15.0139 23.4613 15.0148C23.4608 15.0189 23.4603 15.0235 23.4599 15.0276C23.4597 15.0289 23.4596 15.0301 23.4595 15.0314C23.459 15.0351 23.4586 15.0393 23.4582 15.043C23.4581 15.0438 23.4579 15.0451 23.4579 15.0459C23.4567 15.0559 23.4556 15.0658 23.4545 15.0758C23.4544 15.0766 23.4543 15.077 23.4543 15.0779C23.4538 15.082 23.4533 15.0862 23.4528 15.0903C23.4527 15.0911 23.4526 15.0924 23.4524 15.0936C23.452 15.0974 23.4514 15.1023 23.4509 15.1061C23.4509 15.1065 23.4508 15.1077 23.4507 15.1081C23.4501 15.1131 23.4495 15.1181 23.4489 15.1231C23.4489 15.1235 23.4488 15.1243 23.4487 15.1252C23.4482 15.1293 23.4477 15.133 23.4472 15.1372C23.447 15.1389 23.4469 15.1401 23.4467 15.1413C23.4463 15.1447 23.4458 15.1488 23.4454 15.1517C23.4453 15.1534 23.445 15.1546 23.4449 15.1563C23.4437 15.1654 23.4426 15.175 23.4414 15.1845C23.4412 15.1858 23.4409 15.1874 23.4408 15.1891C23.4404 15.1924 23.4399 15.1957 23.4395 15.199C23.4393 15.2003 23.4391 15.2019 23.4389 15.2036C23.4385 15.2073 23.4379 15.2111 23.4375 15.2148C23.4373 15.2156 23.4372 15.2169 23.437 15.2177C23.4365 15.2223 23.4358 15.2273 23.4352 15.2318C23.4351 15.2331 23.4348 15.2347 23.4347 15.236C23.4342 15.2393 23.4338 15.2426 23.4333 15.2459C23.4331 15.248 23.4329 15.2492 23.4326 15.2509C23.4322 15.2542 23.4317 15.258 23.4313 15.2613C23.4311 15.2625 23.4309 15.2638 23.4308 15.265C23.4301 15.27 23.4295 15.2746 23.4288 15.2791C23.4287 15.28 23.4286 15.2808 23.4285 15.2816C23.428 15.2854 23.4274 15.2895 23.4269 15.2932C23.4266 15.2953 23.4264 15.2966 23.4262 15.2982C23.4258 15.3015 23.4253 15.3044 23.4249 15.3073C23.4246 15.3094 23.4244 15.3111 23.4241 15.3127C23.4236 15.3165 23.4232 15.3198 23.4227 15.3235C23.4225 15.3248 23.4223 15.3256 23.4222 15.3269C23.4215 15.3314 23.4209 15.336 23.4202 15.3405C23.42 15.3422 23.4197 15.3439 23.4195 15.3455C23.419 15.3484 23.4186 15.3518 23.4181 15.3547C23.4178 15.3567 23.4177 15.358 23.4174 15.3601C23.4169 15.363 23.4164 15.3663 23.416 15.3692C23.4157 15.3713 23.4155 15.3725 23.4153 15.3742C23.4146 15.3787 23.4139 15.3833 23.4133 15.3879C23.413 15.3891 23.4128 15.3908 23.4126 15.392C23.4122 15.3949 23.4116 15.3987 23.4112 15.4016C23.4109 15.4036 23.4106 15.4057 23.4103 15.4074C23.4099 15.4103 23.4094 15.4132 23.4091 15.4157C23.4087 15.4177 23.4084 15.4198 23.4081 15.4219C23.4076 15.4248 23.4072 15.4273 23.4068 15.4302C23.4064 15.4331 23.4059 15.436 23.4055 15.4389C23.405 15.4422 23.4045 15.4451 23.404 15.4484C23.4036 15.4505 23.4034 15.4526 23.403 15.4547C23.4025 15.4576 23.4022 15.4597 23.4018 15.4626C23.4014 15.4646 23.4011 15.4667 23.4007 15.4688C23.4003 15.4717 23.3999 15.4742 23.3995 15.4767C23.3992 15.4787 23.3988 15.4808 23.3985 15.4829C23.398 15.4862 23.3975 15.4895 23.3969 15.4924C23.3964 15.4962 23.3959 15.4991 23.3953 15.5024C23.395 15.5049 23.3946 15.507 23.3942 15.509C23.3939 15.5115 23.3934 15.5144 23.393 15.5165C23.3927 15.5186 23.3924 15.5202 23.3921 15.5227C23.3916 15.5252 23.3912 15.5277 23.3908 15.5306C23.3904 15.5323 23.3901 15.5339 23.3899 15.536C23.389 15.541 23.3882 15.5456 23.3874 15.5505C23.3871 15.5522 23.3868 15.5543 23.3865 15.5559C23.386 15.5584 23.3855 15.5617 23.3851 15.5642C23.3848 15.5659 23.3845 15.5676 23.3843 15.5692C23.3838 15.5721 23.3833 15.575 23.3828 15.5775C23.3825 15.5792 23.3823 15.5808 23.382 15.5825C23.3803 15.592 23.3785 15.6024 23.3768 15.612C23.3766 15.6132 23.3764 15.6149 23.3762 15.6161C23.3757 15.619 23.375 15.6223 23.3746 15.6252C23.3743 15.6265 23.3741 15.6277 23.3739 15.629C23.3719 15.6402 23.37 15.651 23.368 15.6622L23.3679 15.6626C23.3672 15.6663 23.3666 15.6696 23.3659 15.6734C23.3658 15.6742 23.3657 15.6746 23.3656 15.675C23.3628 15.6904 23.3599 15.7062 23.357 15.7215C23.357 15.7219 23.357 15.7219 23.3569 15.7219C23.3562 15.7261 23.3555 15.7298 23.3547 15.7336V15.734C22.6546 19.4395 19.7417 22.3457 16.2622 23.5903" fill="#5A5A5A"/>
<path d="M14.4421 1.75307C14.5945 1.24594 14.8729 0.776573 15.2453 0.400168C14.9242 0.884058 14.1929 0.903568 13.7951 1.32645C13.6644 1.46548 13.5784 1.63978 13.5007 1.81408C13.0355 2.85614 12.7066 4.10529 11.6966 4.63524C10.8624 5.07307 9.84668 4.85229 8.9457 4.57714C8.32418 4.38707 7.70245 4.17335 7.15283 3.82641C6.28822 3.28068 5.51007 2.38179 4.4895 2.43823C5.06512 3.1263 5.76299 3.71145 6.54055 4.15799C7.18837 4.53025 7.91671 4.82822 8.36992 5.4225C8.46816 5.55157 8.55395 5.72088 8.48988 5.86987C8.42221 6.02715 8.22739 6.07613 8.05887 6.10518C7.37792 6.22304 6.59019 6.31268 6.07628 5.85037C5.60147 5.42292 5.54283 4.66762 5.07453 4.23353C5.19504 4.68671 5.31555 5.13989 5.43605 5.59307C5.61503 6.2662 5.89299 7.04515 6.56253 7.23563C7.1525 7.40329 7.80977 7.01983 8.38335 7.23729C8.6033 7.32071 8.7819 7.48339 8.97651 7.61536C9.7241 8.1229 10.7672 8.15237 11.5423 7.6884C11.8486 7.50456 12.1104 7.25473 12.4124 7.06424C13.7066 6.24752 15.5115 6.63928 16.7779 5.78064C17.0017 5.62875 17.2049 5.43619 17.327 5.19508C17.4406 4.97057 17.4785 4.71493 17.4918 4.46385C17.5558 3.24707 17.0453 2.01244 16.141 1.19655C16.3574 1.48788 16.7503 2.10374 16.8151 2.95906C16.8406 3.29438 16.8713 3.69983 16.6645 4.11483C16.1849 5.07639 14.733 5.47313 13.9825 5.027C13.9 4.97803 13.6002 4.7917 13.5133 4.46261C13.4539 4.23726 13.5039 3.9866 13.6551 3.71851C14.0391 3.03832 14.2164 2.50463 14.4421 1.75307Z" fill="#818181"/>
<path d="M11.1961 2.03778C11.1082 1.80704 11.0084 1.568 10.8175 1.41155C10.6265 1.25509 10.3164 1.21608 10.1438 1.39245C10.61 2.74369 10.863 4.16798 10.8904 5.59724C11.1053 5.71842 11.328 5.84208 11.5733 5.86823C12.4883 5.96575 12.0445 4.92535 11.9292 4.43316C11.7386 3.61976 11.4936 2.81881 11.1961 2.03778" fill="#818181"/>
<path d="M12.5248 6.95302C12.1073 7.38462 11.4378 7.47883 10.8472 7.37093C10.2566 7.26303 9.7136 6.98456 9.15577 6.76253C8.59794 6.54009 7.98873 6.37119 7.40134 6.49528C7.78624 6.69697 8.13909 6.95841 8.44729 7.26468C8.63858 7.35308 8.80117 7.49667 8.97654 7.61536C9.72413 8.1229 10.7672 8.15237 11.5423 7.6884C11.8487 7.50456 12.1104 7.25473 12.4125 7.06424C12.4488 7.041 12.4857 7.01942 12.5229 6.99825L12.5248 6.95302" fill="#9C9C9C"/>
<path d="M11.1961 2.03778C11.1082 1.80704 11.0084 1.568 10.8175 1.41155C10.7538 1.35926 10.6764 1.32191 10.5957 1.2995C11.422 2.63912 11.7274 4.29538 11.4387 5.84291C11.4829 5.85412 11.5276 5.86325 11.5733 5.86823C12.4883 5.96575 12.0445 4.92535 11.9292 4.43316C11.7386 3.61976 11.4937 2.81881 11.1961 2.03778" fill="#6E6E6E"/>
<path d="M19.5817 12.7862C19.7454 12.1753 19.9449 11.1669 19.6253 9.95838C19.3818 9.03791 18.7934 8.18218 17.9407 7.76012C17.1794 7.38289 16.2829 7.37708 15.4466 7.52606C14.6103 7.67505 13.8068 7.96804 12.9808 8.166C11.358 8.55485 9.64735 8.57228 8.01708 8.21538C6.95512 7.9834 5.85344 7.59454 4.81097 7.90289C3.62275 8.25439 2.85297 9.44295 2.55856 10.6477C1.97714 13.0265 2.98638 15.7136 4.98953 17.12C6.15396 17.9376 7.57648 18.3264 8.99411 18.4431C10.8535 18.5958 13.016 19.0415 15.3306 17.8948C17.5201 16.81 19.0414 14.8014 19.5817 12.7862Z" fill="#6C6C6C"/>
<path d="M19.4747 14.5201C19.3643 14.5201 19.2545 14.516 19.1474 14.5089C19.0612 14.5031 18.9744 14.4961 18.8874 14.4874C19.1938 13.935 19.4276 13.361 19.5817 12.7863C19.7454 12.1754 19.9449 11.1669 19.6253 9.95846C19.3818 9.03799 18.7934 8.18226 17.9407 7.7602C17.836 7.70833 17.7288 7.6631 17.6195 7.62492C17.7011 7.55769 17.7958 7.5278 17.8999 7.5278C18.6794 7.5278 19.986 9.2152 20.2576 9.61443C20.934 10.6075 21.3743 11.8019 21.2814 13C21.2546 13.3461 21.1778 13.7022 20.9635 13.9748C20.6233 14.4073 20.0404 14.5206 19.4747 14.5201" fill="#737373"/>
<path d="M18.8874 14.4873C18.0198 14.4006 17.132 14.1507 16.5697 13.4971C15.9301 12.7534 15.8816 11.6055 16.3311 10.7336C16.6481 10.1186 17.1885 9.5986 17.3032 8.91634C17.3579 8.59098 17.3103 8.24779 17.4207 7.93737C17.472 7.79253 17.5394 7.69085 17.6195 7.62487C17.7288 7.66305 17.836 7.70828 17.9407 7.76016C18.7934 8.18221 19.3818 9.03795 19.6253 9.95842C19.9449 11.1669 19.7454 12.1753 19.5817 12.7862C19.4276 13.361 19.1938 13.9349 18.8874 14.4873" fill="#7F7F7F"/>
<path d="M6.87836 14.9987C6.2427 14.9987 5.60791 14.8746 5.02458 14.6198C4.69271 14.4745 4.37249 14.2869 4.1294 14.018C3.5678 13.3972 3.51721 12.4647 3.65414 11.6384C3.74317 11.101 3.91356 10.5486 4.30606 10.1714C4.72115 9.77215 5.28068 9.64848 5.86783 9.64848C6.28491 9.64848 6.71606 9.71114 7.11888 9.78128C7.91872 9.92113 8.7205 10.0523 9.51884 10.2C9.91706 10.2735 10.381 10.3179 10.6809 10.6221C11.645 11.599 10.797 13.1901 9.95633 13.9006C9.10549 14.6198 7.99037 14.9987 6.87836 14.9987" fill="#959595"/>
</g>
</svg>
